<svg width="45" height="45" viewBox="0 0 45 45" fill="none" xmlns="http://www.w3.org/2000/svg">
<path d="M45 40C45 42.7613 42.7613 45 40 45H5C2.23875 45 0 42.7613 0 40V5C0 2.23875 2.23875 0 5 0H40C42.7613 0 45 2.23875 45 5V40Z" fill="#3751FF"/>
<path d="M18.9361 31.134H23.5098C25.6023 31.134 27.1536 29.9327 27.1536 27.7627C27.1536 25.9402 25.7573 24.7002 23.0448 24.7002H18.9361V31.134ZM18.9361 19.584H21.9598C23.8586 19.584 25.0986 18.4602 25.0986 16.5227C25.0986 14.7015 23.6648 13.7702 21.9598 13.7702H18.9361V19.584ZM13.1236 11.5615C13.1236 9.70149 14.4023 8.65524 16.1848 8.65524H23.6261C27.6561 8.65524 30.9136 11.3677 30.9136 15.4765C30.9136 18.189 29.7873 20.0115 27.3073 21.1727V21.2515C30.6023 21.7165 33.1986 24.4677 33.1986 27.839C33.1986 33.304 29.5561 36.2502 24.2061 36.2502H16.2236C14.4398 36.2502 13.1236 35.1252 13.1236 33.304V11.5615V11.5615Z" fill="white"/>
</svg>
