<svg width="45" height="45" viewBox="0 0 45 45" fill="none" xmlns="http://www.w3.org/2000/svg">
<path d="M15.7585 31.7297C15.4048 31.7302 15.0551 31.6553 14.7327 31.51C14.4103 31.3647 14.1225 31.1523 13.8886 30.887C13.6548 30.6218 13.4801 30.3097 13.3764 29.9716C13.2726 29.6335 13.2421 29.2772 13.2869 28.9264L14.2158 21.694C14.2849 21.15 14.5295 20.6434 14.9125 20.2509L32.9269 2.25306C33.5609 1.56166 34.3283 1.00575 35.1828 0.618815C36.0373 0.231883 36.9614 0.0219381 37.8992 0.00162918C38.8371 -0.0186797 39.7693 0.151067 40.6398 0.500644C41.5103 0.850221 42.301 1.37239 42.9643 2.0357C43.6276 2.69901 44.1498 3.48973 44.4994 4.36022C44.8489 5.23071 45.0187 6.16295 44.9984 7.10079C44.9781 8.03863 44.7681 8.96266 44.3812 9.8172C43.9943 10.6717 43.4383 11.4391 42.7469 12.0731L24.7491 30.0875C24.3566 30.4705 23.85 30.7151 23.306 30.7842L16.0736 31.7131L15.7585 31.7297ZM19.0761 23.1704L18.6614 26.3718L21.8296 25.924L39.2303 8.55645C39.4149 8.37436 39.5614 8.15742 39.6615 7.91822C39.7615 7.67902 39.813 7.42234 39.813 7.16307C39.813 6.9038 39.7615 6.64711 39.6615 6.40792C39.5614 6.16872 39.4149 5.95178 39.2303 5.76969C38.8562 5.40886 38.3567 5.20723 37.8369 5.20723C37.3172 5.20723 36.8177 5.40886 36.4436 5.76969L19.0761 23.1704Z" fill="#7713F8"/>
<path d="M37.1402 16.6513C36.4879 16.6623 35.8571 16.4183 35.3819 15.9712L29.0288 9.61807C28.7843 9.39028 28.5882 9.11558 28.4522 8.81037C28.3162 8.50515 28.2431 8.17567 28.2372 7.84158C28.2313 7.50749 28.2928 7.17564 28.4179 6.86582C28.5431 6.55599 28.7293 6.27455 28.9656 6.03828C29.2019 5.802 29.4833 5.61574 29.7932 5.4906C30.103 5.36546 30.4348 5.304 30.7689 5.30989C31.103 5.31579 31.4325 5.38891 31.7377 5.52491C32.0429 5.6609 32.3176 5.85698 32.5454 6.10144L38.9815 12.4048C39.329 12.7528 39.5657 13.196 39.6615 13.6783C39.7573 14.1607 39.708 14.6606 39.5199 15.115C39.3318 15.5694 39.0132 15.9579 38.6044 16.2313C38.1956 16.5047 37.715 16.6509 37.2232 16.6513H37.1402ZM38.9815 45H2.48818C1.82827 45 1.1954 44.7378 0.728771 44.2712C0.262147 43.8046 0 43.1717 0 42.5118V6.0185C0 5.35859 0.262147 4.72571 0.728771 4.25909C1.1954 3.79247 1.82827 3.53032 2.48818 3.53032H20.7348C21.3947 3.53032 22.0276 3.79247 22.4942 4.25909C22.9609 4.72571 23.223 5.35859 23.223 6.0185C23.223 6.67841 22.9609 7.31129 22.4942 7.77791C22.0276 8.24453 21.3947 8.50668 20.7348 8.50668H4.97636V40.0236H36.4933V24.2652C36.4933 23.6053 36.7555 22.9724 37.2221 22.5057C37.6887 22.0391 38.3216 21.777 38.9815 21.777C39.6414 21.777 40.2743 22.0391 40.7409 22.5057C41.2075 22.9724 41.4697 23.6053 41.4697 24.2652V42.5118C41.4697 43.1717 41.2075 43.8046 40.7409 44.2712C40.2743 44.7378 39.6414 45 38.9815 45V45Z" fill="#7713F8"/>
</svg>
