<svg width="24" height="24" viewBox="0 0 24 24" fill="none" xmlns="http://www.w3.org/2000/svg">
<path d="M12 0C5.37115 0 0 5.37115 0 12C0 18.6288 5.37115 24 12 24C18.6288 24 24 18.6288 24 12C24 5.37115 18.6288 0 12 0ZM12 23.0019C8.61923 23.0019 5.59038 21.4673 3.57115 19.0615C4.59808 18.6173 7.15962 17.6942 8.78077 17.2212C8.90769 17.1808 8.93077 17.175 8.93077 16.6038C8.93077 15.9923 8.86154 15.5596 8.71154 15.2423C8.50962 14.8096 8.26731 14.0769 8.18077 13.4192C7.93846 13.1365 7.60962 12.5827 7.39615 11.5212C7.21154 10.5865 7.29808 10.2462 7.41923 9.92885C7.43077 9.89423 7.44808 9.85962 7.45385 9.825C7.5 9.61154 7.43654 8.46923 7.275 7.58654C7.16539 6.98077 7.30385 5.69423 8.14039 4.62692C8.66539 3.95192 9.675 3.12692 11.4865 3.01154H12.4962C14.3365 3.12692 15.3462 3.95192 15.8712 4.62692C16.7077 5.69423 16.8462 6.98077 16.7308 7.58654C16.5692 8.46923 16.5058 9.60577 16.5519 9.825C16.5577 9.85962 16.575 9.89423 16.5865 9.92308C16.7077 10.2404 16.8 10.5808 16.6096 11.5154C16.3962 12.5769 16.0673 13.1308 15.825 13.4135C15.7385 14.0712 15.4962 14.7981 15.2942 15.2365C15.1038 15.6346 14.9135 16.1077 14.9135 16.5808C14.9135 17.1519 14.9365 17.1577 15.0692 17.1981C16.6096 17.6538 19.2635 18.5712 20.4346 19.05C18.4154 21.4615 15.3865 23.0019 12 23.0019Z" fill="#EAEAEA"/>
</svg>
