<svg width="18" height="16" viewBox="0 0 18 16" fill="none" xmlns="http://www.w3.org/2000/svg">
<path d="M14.7273 9.6H18V0H14.7273V9.6ZM11.4545 0H4.09091C3.41182 0 2.83091 0.4 2.58545 0.976L0.114545 6.616C0.0409091 6.8 0 6.992 0 7.2V8.8C0 9.22435 0.172402 9.63131 0.47928 9.93137C0.786158 10.2314 1.20237 10.4 1.63636 10.4H6.79909L6.02182 14.056C6.00545 14.136 5.99727 14.216 5.99727 14.304C5.99727 14.64 6.13636 14.936 6.35727 15.152L7.22455 16L12.6082 10.728C12.9109 10.44 13.0909 10.04 13.0909 9.6V1.6C13.0909 0.712 12.3545 0 11.4545 0Z" fill="#979797"/>
</svg>
