<svg width="30" height="30" viewBox="0 0 30 30" fill="none" xmlns="http://www.w3.org/2000/svg">
<path d="M15 0C6.71394 0 0 6.71394 0 15C0 23.2861 6.71394 30 15 30C23.2861 30 30 23.2861 30 15C30 6.71394 23.2861 0 15 0ZM15 28.7524C10.774 28.7524 6.98798 26.8341 4.46394 23.8269C5.7476 23.2716 8.94952 22.1178 10.976 21.5264C11.1346 21.476 11.1635 21.4687 11.1635 20.7548C11.1635 19.9904 11.0769 19.4495 10.8894 19.0529C10.637 18.512 10.3341 17.5962 10.226 16.774C9.92308 16.4207 9.51202 15.7284 9.24519 14.4014C9.01442 13.2332 9.1226 12.8077 9.27404 12.4111C9.28846 12.3678 9.3101 12.3245 9.31731 12.2813C9.375 12.0144 9.29567 10.5865 9.09375 9.48317C8.95673 8.72596 9.12981 7.11779 10.1755 5.78365C10.8317 4.9399 12.0938 3.90865 14.3582 3.76442H15.6202C17.9207 3.90865 19.1827 4.9399 19.8389 5.78365C20.8846 7.11779 21.0577 8.72596 20.9135 9.48317C20.7115 10.5865 20.6322 12.0072 20.6899 12.2813C20.6971 12.3245 20.7187 12.3678 20.7332 12.4038C20.8846 12.8005 21 13.226 20.762 14.3942C20.4952 15.7212 20.0841 16.4135 19.7812 16.7668C19.6731 17.5889 19.3702 18.4976 19.1178 19.0457C18.8798 19.5433 18.6418 20.1346 18.6418 20.726C18.6418 21.4399 18.6707 21.4471 18.8365 21.4976C20.762 22.0673 24.0793 23.2139 25.5433 23.8125C23.0192 26.8269 19.2332 28.7524 15 28.7524V28.7524Z" fill="#414B56"/>
</svg>
