<svg width="24" height="24" viewBox="0 0 24 24" fill="none" xmlns="http://www.w3.org/2000/svg">
<path opacity="0.4" d="M22.8469 14.7983L20.85 13.6452C21.0516 12.5577 21.0516 11.4421 20.85 10.3546L22.8469 9.20147C23.0766 9.07022 23.1797 8.79835 23.1047 8.54522C22.5844 6.87647 21.6985 5.3671 20.5406 4.11085C20.3625 3.91866 20.0719 3.87179 19.8469 4.00304L17.85 5.15616C17.011 4.43429 16.0453 3.87647 15 3.51085V1.20929C15 0.946786 14.8172 0.717099 14.5594 0.660849C12.8391 0.276474 11.0766 0.295224 9.44065 0.660849C9.18284 0.717099 9.00003 0.946786 9.00003 1.20929V3.51554C7.9594 3.88585 6.99378 4.44366 6.15003 5.16085L4.15784 4.00772C3.92815 3.87647 3.64222 3.91866 3.46409 4.11554C2.30628 5.3671 1.42034 6.87647 0.90003 8.54991C0.820343 8.80304 0.928155 9.07491 1.15784 9.20616L3.15472 10.3593C2.95315 11.4468 2.95315 12.5624 3.15472 13.6499L1.15784 14.803C0.928155 14.9343 0.825031 15.2062 0.90003 15.4593C1.42034 17.128 2.30628 18.6374 3.46409 19.8937C3.64222 20.0858 3.93284 20.1327 4.15784 20.0015L6.15472 18.8483C6.99378 19.5702 7.9594 20.128 9.00471 20.4937V22.7999C9.00471 23.0624 9.18753 23.2921 9.44534 23.3483C11.1657 23.7327 12.9281 23.714 14.5641 23.3483C14.8219 23.2921 15.0047 23.0624 15.0047 22.7999V20.4937C16.0453 20.1233 17.011 19.5655 17.8547 18.8483L19.8516 20.0015C20.0813 20.1327 20.3672 20.0905 20.5453 19.8937C21.7031 18.6421 22.5891 17.1327 23.1094 15.4593C23.1797 15.2015 23.0766 14.9296 22.8469 14.7983V14.7983ZM12 15.7499C9.93284 15.7499 8.25003 14.0671 8.25003 11.9999C8.25003 9.93272 9.93284 8.24991 12 8.24991C14.0672 8.24991 15.75 9.93272 15.75 11.9999C15.75 14.0671 14.0672 15.7499 12 15.7499Z" fill="#9FA2B4"/>
</svg>
