<svg width="24" height="18" viewBox="0 0 24 18" fill="none" xmlns="http://www.w3.org/2000/svg">
<path opacity="0.4" d="M3.6 7.8C4.92375 7.8 6 6.72375 6 5.4C6 4.07625 4.92375 3 3.6 3C2.27625 3 1.2 4.07625 1.2 5.4C1.2 6.72375 2.27625 7.8 3.6 7.8ZM20.4 7.8C21.7238 7.8 22.8 6.72375 22.8 5.4C22.8 4.07625 21.7238 3 20.4 3C19.0763 3 18 4.07625 18 5.4C18 6.72375 19.0763 7.8 20.4 7.8ZM21.6 9H19.2C18.54 9 17.9438 9.26625 17.5088 9.6975C19.02 10.5262 20.0925 12.0225 20.325 13.8H22.8C23.4638 13.8 24 13.2637 24 12.6V11.4C24 10.0762 22.9238 9 21.6 9ZM12 9C14.3213 9 16.2 7.12125 16.2 4.8C16.2 2.47875 14.3213 0.599998 12 0.599998C9.67875 0.599998 7.8 2.47875 7.8 4.8C7.8 7.12125 9.67875 9 12 9ZM14.88 10.2H14.5688C13.7888 10.575 12.9225 10.8 12 10.8C11.0775 10.8 10.215 10.575 9.43125 10.2H9.12C6.735 10.2 4.8 12.135 4.8 14.52V15.6C4.8 16.5937 5.60625 17.4 6.6 17.4H17.4C18.3938 17.4 19.2 16.5937 19.2 15.6V14.52C19.2 12.135 17.265 10.2 14.88 10.2ZM6.49125 9.6975C6.05625 9.26625 5.46 9 4.8 9H2.4C1.07625 9 0 10.0762 0 11.4V12.6C0 13.2637 0.53625 13.8 1.2 13.8H3.67125C3.9075 12.0225 4.98 10.5262 6.49125 9.6975Z" fill="#9FA2B4"/>
</svg>
