<svg width="24" height="23" viewBox="0 0 24 23" fill="none" xmlns="http://www.w3.org/2000/svg">
<path d="M0 11C0 11.3183 0.158036 11.6235 0.43934 11.8485C0.720645 12.0736 1.10218 12.2 1.5 12.2H12.885L9.435 14.948C9.29441 15.0596 9.18282 15.1923 9.10666 15.3385C9.03051 15.4847 8.9913 15.6416 8.9913 15.8C8.9913 15.9584 9.03051 16.1153 9.10666 16.2615C9.18282 16.4077 9.29441 16.5404 9.435 16.652C9.57444 16.7645 9.74035 16.8537 9.92313 16.9147C10.1059 16.9756 10.302 17.007 10.5 17.007C10.698 17.007 10.8941 16.9756 11.0769 16.9147C11.2597 16.8537 11.4256 16.7645 11.565 16.652L17.565 11.852C17.7016 11.7379 17.8086 11.6033 17.88 11.456C18.03 11.1638 18.03 10.8362 17.88 10.544C17.8086 10.3967 17.7016 10.2621 17.565 10.148L11.565 5.348C11.4251 5.23611 11.2591 5.14736 11.0764 5.08681C10.8936 5.02626 10.6978 4.99509 10.5 4.99509C10.3022 4.99509 10.1064 5.02626 9.92363 5.08681C9.74089 5.14736 9.57486 5.23611 9.435 5.348C9.29514 5.45989 9.1842 5.59271 9.10851 5.7389C9.03282 5.88509 8.99386 6.04177 8.99386 6.2C8.99386 6.35823 9.03282 6.51491 9.10851 6.6611C9.1842 6.80729 9.29514 6.94011 9.435 7.052L12.885 9.8H1.5C1.10218 9.8 0.720645 9.92643 0.43934 10.1515C0.158036 10.3765 0 10.6817 0 11V11ZM19.5 -1H4.5C3.30653 -1 2.16193 -0.620715 1.31802 0.0544157C0.474106 0.729547 0 1.64522 0 2.6V6.2C0 6.51826 0.158036 6.82348 0.43934 7.04853C0.720645 7.27357 1.10218 7.4 1.5 7.4C1.89782 7.4 2.27936 7.27357 2.56066 7.04853C2.84196 6.82348 3 6.51826 3 6.2V2.6C3 2.28174 3.15804 1.97652 3.43934 1.75147C3.72064 1.52643 4.10218 1.4 4.5 1.4H19.5C19.8978 1.4 20.2794 1.52643 20.5607 1.75147C20.842 1.97652 21 2.28174 21 2.6V19.4C21 19.7183 20.842 20.0235 20.5607 20.2485C20.2794 20.4736 19.8978 20.6 19.5 20.6H4.5C4.10218 20.6 3.72064 20.4736 3.43934 20.2485C3.15804 20.0235 3 19.7183 3 19.4V15.8C3 15.4817 2.84196 15.1765 2.56066 14.9515C2.27936 14.7264 1.89782 14.6 1.5 14.6C1.10218 14.6 0.720645 14.7264 0.43934 14.9515C0.158036 15.1765 0 15.4817 0 15.8V19.4C0 20.3548 0.474106 21.2705 1.31802 21.9456C2.16193 22.6207 3.30653 23 4.5 23H19.5C20.6935 23 21.8381 22.6207 22.682 21.9456C23.5259 21.2705 24 20.3548 24 19.4V2.6C24 1.64522 23.5259 0.729547 22.682 0.0544157C21.8381 -0.620715 20.6935 -1 19.5 -1Z" fill="#9FA2B4"/>
</svg>
